<svg height="120" viewBox="0 0 118 120" width="118" xmlns="http://www.w3.org/2000/svg"><g fill="none" fill-rule="evenodd" transform="translate(0 .072)"><path d="m109.936 59.928c0-28.22-22.877-51.097-51.097-51.097s-51.096 22.877-51.096 51.097 22.877 51.096 51.096 51.096c13.552 0 26.549-5.383 36.131-14.966 9.583-9.582 14.966-22.579 14.966-36.13z" fill="#369a26"/><path d="m36.969 8.444 3.677-1.355c-10.452-9.484-24.968-9.29-33.871-.387s-9.097 22.839-.194 33.29l.581-1.742c2.874-6.621 6.942-12.657 12-17.806 5.135-5.076 11.174-9.146 17.807-12zm73.741-1.742c-8.903-8.903-23.419-9.097-33.87.387l3.677 1.355c13.43 5.685 24.12 16.376 29.806 29.806.177.614.438 1.2.775 1.742 8.903-10.451 8.516-24.58-.388-33.29zm-26.129 88.838-5.225 3.29c-12.922 6.714-28.304 6.714-41.226 0l-5.032-3.29c-15.191-11.131-21.504-30.767-15.648-48.667 5.857-17.9 22.556-30.006 41.39-30.006 18.833 0 35.532 12.107 41.389 30.006 5.856 17.9-.457 37.536-15.648 48.669zm-67.354 24.194h12l5.032-8.903-8.129-6.774zm81.677 0h-12l-5.032-8.903 8.129-6.774z" fill="#3dae2b"/><path d="m86.13 33.024c-7.19-7.324-17.028-11.44-27.29-11.42-10.322-.029-20.223 4.085-27.484 11.42-7.324 7.19-11.441 17.028-11.42 27.29 0 10.3 4.105 20.176 11.406 27.441 7.302 7.265 17.198 11.32 27.497 11.27 10.24.094 20.082-3.955 27.29-11.226 7.336-7.262 11.45-17.163 11.42-27.484.022-10.263-4.095-20.101-11.42-27.29z" fill="#fff"/><path d="m64.259 52.573h-.194l-13.161-12.774c-.368-.35-.848-.555-1.355-.581l-1.355.58-1.355 1.549c-.384.343-.597.84-.58 1.355.026.506.232.987.58 1.355l12.194 11.613.58 20.322c.09 1.03.907 1.846 1.936 1.936h2.13c.497.003.972-.207 1.305-.577s.491-.864.436-1.359l-.58-21.87c-.11-.484-.307-.943-.581-1.356z" fill="#237e5b" stroke="#237e5b" stroke-width=".5"/></g></svg>