<svg height="150" viewBox="0 0 209 150" width="209" xmlns="http://www.w3.org/2000/svg"><g fill="none" fill-rule="evenodd" transform="translate(1)"><g fill="#009af7"><path d="m119.552 0h-29.37c-.946 0-1.713.769-1.713 1.718v10.868l.013.216c.106.847.827 1.502 1.7 1.502l2.41-.002.002 5.005c0 3.912-2.595 7.339-6.237 8.18l-.758.179c-14.049 3.43-21.699 11.027-21.962 22.184l-.007.768-.475.002c-2.348 0-4.262 1.919-4.262 4.274v9.507l.01.304c.157 2.214 2.006 3.97 4.252 3.97l.475-.001v13.72h-.475c-2.348 0-4.262 1.919-4.262 4.274v9.507l.01.304c.157 2.21 2.007 3.964 4.252 3.964h.475v13.72h-.475c-2.348 0-4.262 1.918-4.262 4.274v9.506l.01.305c.157 2.214 2.006 3.97 4.252 3.97l.475-.002v1.996c0 6.425 3.308 10.798 8.871 13.278 3.729 1.662 8.026 2.322 12.156 2.35l.97-.008.218-.008 19.022-.006 18.994.003.402.014.576.006c3.956 0 8.286-.61 12.115-2.254l.537-.24c5.646-2.604 8.607-7.096 8.607-13.135v-1.996l.48.002c2.35 0 4.263-1.92 4.263-4.275v-9.506l-.011-.305c-.156-2.214-2.005-3.97-4.252-3.97h-.48v-13.72l.48.001c2.348 0 4.263-1.917 4.263-4.268v-9.507l-.011-.304c-.156-2.214-2.005-3.97-4.252-3.97h-.48v-13.72h.48c2.35 0 4.263-1.918 4.263-4.273v-9.507l-.011-.305c-.156-2.213-2.005-3.97-4.252-3.97h-.48v-.168c0-11.686-7.94-19.566-22.723-22.965l-.373-.096c-3.447-.982-5.873-4.31-5.873-8.083l-.001-5.005 2.424.002c.946 0 1.713-.77 1.713-1.718v-10.868c0-.949-.767-1.718-1.713-1.718z" fill-opacity=".07" fill-rule="nonzero"/><path d="m119.375 30.486-.373-.096c-1.554-.443 9.217 3.575 14.936 10.691 3.708 4.615 3.89 9.151 4.66 15.137.225 1.75 4.948-8.945 5.545-8.26.328.376-.87-6.287-6.732-11.067-4.193-3.419-11.872-4.988-18.036-6.405z" fill-opacity=".12" fill-rule="nonzero"/><path d="m62.938 58.992c3.708 4.706 3.89 9.33 4.66 15.434.225 1.785 4.948-9.121 5.545-8.422.328.383-.87-6.41-6.732-11.285-4.193-3.486-9.192-2.983-3.473 4.273z" fill-opacity=".12" fill-rule="nonzero" transform="matrix(-.77714596 .62932039 .62932039 .77714596 78.633583 -27.845612)"/><path d="m62.694 66.931c5.382 7.673 41.092 58.343 42.21 68.295.326 2.91 7.18-14.872 8.048-13.733.476.625-36.709-53.58-45.217-61.529-6.085-5.684-13.34-4.864-5.041 6.967z" fill-opacity=".12" fill-rule="nonzero" opacity=".704" transform="matrix(-.77714596 .62932039 .62932039 .77714596 92.311862 -32.689345)"/><path d="m105.07 78.083c4.23 5.995 27.858 39.86 28.736 47.636.257 2.274 5.643-11.621 6.324-10.73.374.487-24.413-36.14-31.099-42.35-4.78-4.441-10.481-3.8-3.96 5.444z" fill-opacity=".12" fill-rule="nonzero" opacity=".704" transform="matrix(.82903757 .5591929 -.5591929 .82903757 75.493491 -50.988084)"/></g><path d="m0 131.026h207.011" stroke="#e85d3d" stroke-dasharray="12.26 12.26" stroke-linecap="round" stroke-linejoin="round" stroke-width="1.532"/><path d="m74.385 128.881c9.897 1.76 18.911 1.664 27.043-.29 7.402-1.778 16.649-4.27 27.74-7.475 6.597-1.906 13.489 1.896 15.395 8.492.324 1.122.489 2.284.489 3.451l-1 3.106v.99c0 5.502-4.46 9.961-9.962 9.961h-58.762c-5.29 0-9.658-4.135-9.946-9.417l-.045-.807c-.232-4.251 3.027-7.886 7.278-8.118.592-.032 1.186.004 1.77.107z" fill="#61b0f2"/><ellipse cx="137.155" cy="131.026" fill="#fff" opacity=".137" rx="3.831" ry="2.299"/><path d="m134.256 123.86c.963 0 2.4.865 2.887.541.489-.323.56-.815.312-1.413-.248-.6-1.103-.698-2.7-1.27-1.596-.57-3.29-.293-3.29.358 0 .65.006 1.37.574 1.585.567.216 1.253.2 2.217.2z" fill="#fff" opacity=".081" transform="matrix(-.93358043 -.35836795 -.35836795 .93358043 304.180924 56.376602)"/><path d="m72.534 126.198c12.443 3.645 23.51 5.468 33.2 5.468 10.752 0 22.632-1.653 35.64-4.958 1.904-.483 3.838.668 4.322 2.57.168.662.142 1.358-.075 2.005l-2.737 5.46-.013.622c-.113 5.418-4.539 9.751-9.958 9.751h-57.59c-4.77 0-8.638-3.867-8.638-8.638 0-.642.072-1.282.213-1.907l-3.064-2.36c-.768-3.734 1.636-7.383 5.37-8.15 1.104-.227 2.248-.18 3.33.137z" fill="#339af0" transform="matrix(-1 0 0 1 209.175 0)"/><path d="m89.442 141.628c5.5 0 9.092 2.1 11.289 1.518 2.197-.581 2.516-1.464 1.4-2.54-1.114-1.075-2.246-1.814-9.43-2.84s-11.104-3.812-18.21-.87c-11.334 4.81 1.215 5.39 2.664 5.65 2.55.457 6.786-.918 12.287-.918z" fill="#fff" opacity=".137" transform="matrix(.97029573 .2419219 .2419219 -.97029573 -31.165189 253.820098)"/><path d="m119.015.19c.945 0 1.71.766 1.71 1.711v10.826c0 .945-.765 1.711-1.71 1.711l-2.422-.002.001 4.986c0 3.758 2.424 7.073 5.867 8.051l.373.096c14.766 3.385 22.697 11.235 22.697 22.875v.167l.48.002c2.244 0 4.09 1.749 4.247 3.954l.01.303v9.47c0 2.346-1.91 4.258-4.257 4.258l-.48-.001v13.666h.48c2.244 0 4.09 1.75 4.247 3.954l.01.304v9.47c0 2.341-1.912 4.252-4.257 4.252l-.48-.002v13.667h.48c2.244 0 4.09 1.749 4.247 3.954l.01.304v9.47c0 2.345-1.91 4.257-4.257 4.257l-.48-.002v1.989c0 6.015-2.957 10.49-8.597 13.084l-.537.238c-3.825 1.637-8.15 2.245-12.1 2.245l-.576-.005-.401-.014-18.973-.003-19.001.006-.218.008-.969.008c-4.126-.028-8.418-.685-12.143-2.341-5.557-2.47-8.86-6.827-8.86-13.226v-1.989l-.475.002c-2.244 0-4.09-1.749-4.247-3.954l-.01-.304v-9.47c0-2.345 1.911-4.257 4.257-4.257h.474v-13.668l-.474.002c-2.242 0-4.09-1.748-4.247-3.95l-.01-.303v-9.47c0-2.345 1.911-4.257 4.257-4.257h.474v-13.665h-.474c-2.244 0-4.09-1.748-4.247-3.954l-.01-.303v-9.47c0-2.346 1.911-4.257 4.257-4.257l.474-.002.008-.765c.263-11.114 7.904-18.681 21.937-22.098l.757-.179c3.638-.837 6.23-4.25 6.23-8.147l-.002-4.986-2.407.002c-.873 0-1.592-.652-1.698-1.496l-.013-.215v-10.826c0-.945.766-1.71 1.71-1.71zm-5.843 14.235h-17.663v4.997c0 5.36-3.529 10.104-8.602 11.413l-.284.07c-13.35 3.059-20.045 9.684-20.045 19.54v1.879c0 .945-.766 1.71-1.711 1.71h-2.187c-.456 0-.835.38-.835.836v9.47c0 .456.379.836.835.836h2.186c.945 0 1.71.766 1.71 1.71v17.088c0 .945-.765 1.711-1.71 1.711h-2.186c-.456 0-.835.38-.835.836v9.47c0 .45.38.83.835.83h2.186c.945 0 1.71.766 1.71 1.71v17.088c0 .945-.765 1.71-1.71 1.71h-2.186c-.456 0-.835.38-.835.837v9.47c0 .456.379.835.835.835h2.186c.945 0 1.71.766 1.71 1.711v3.698c0 8.698 7.602 12.077 17.6 12.145l.665-.003.387-.01 19.117-.009 19.11.007.103.005.511.01 1.052-.01c3.301-.08 6.867-.648 9.931-1.96 4.753-2.027 7.056-5.37 7.056-10.175v-3.698c0-.945.766-1.71 1.711-1.71h2.191c.456 0 .836-.38.836-.837v-9.47c0-.456-.38-.835-.836-.835h-2.19c-.946 0-1.712-.766-1.712-1.711v-17.087c0-.945.766-1.711 1.711-1.711h2.191c.456 0 .836-.38.836-.83v-9.47c0-.456-.38-.836-.836-.836h-2.19c-.946 0-1.712-.766-1.712-1.71v-17.089c0-.945.766-1.711 1.711-1.711h2.191c.456 0 .836-.38.836-.836v-9.47c0-.456-.38-.835-.836-.835h-2.19c-.946 0-1.712-.766-1.712-1.711v-1.88c0-9.854-6.694-16.48-20.042-19.54-5.225-1.203-8.895-6.025-8.895-11.482v-4.997zm4.13-10.813h-25.914v7.403h1.477l.186-.01h24.193l.058.001z" fill="#92989d" fill-rule="nonzero"/></g></svg>