<svg width="40" height="40" viewBox="0 0 40 40" fill="none" xmlns="http://www.w3.org/2000/svg">
<path d="M20.0007 3.33337C10.7957 3.33337 3.33398 10.795 3.33398 20C3.33398 29.205 10.7957 36.6667 20.0007 36.6667C29.2057 36.6667 36.6673 29.205 36.6673 20C36.6673 10.795 29.2057 3.33337 20.0007 3.33337Z" fill="#4884EE"/>
<path d="M22.2553 24.4175H26.5686L27.2461 20.0358H22.2553V17.6408C22.2553 15.8208 22.8503 14.2066 24.5528 14.2066H27.2886V10.3833C26.8078 10.3183 25.7911 10.1766 23.8703 10.1766C19.8586 10.1766 17.507 12.295 17.507 17.1216V20.0366H13.3828V24.4183H17.5061V36.4616C18.3228 36.5833 19.1503 36.6666 19.9995 36.6666C20.767 36.6666 21.5161 36.5966 22.2553 36.4966V24.4175Z" fill="white"/>
</svg>
