<svg width="40" height="40" viewBox="0 0 40 40" fill="none" xmlns="http://www.w3.org/2000/svg">
<path d="M14.6857 3.33374L8.65234 9.38374" stroke="#E24C33" stroke-width="3" stroke-miterlimit="10" stroke-linecap="round" stroke-linejoin="round"/>
<path d="M25.3164 3.33374L31.3497 9.38374" stroke="#E24C33" stroke-width="3" stroke-miterlimit="10" stroke-linecap="round" stroke-linejoin="round"/>
<path d="M3.32812 13.0838C3.32812 10.0005 4.97812 9.75049 7.02812 9.75049H32.9615C35.0115 9.75049 36.6615 10.0005 36.6615 13.0838C36.6615 16.6672 35.0115 16.4172 32.9615 16.4172H7.02812C4.97812 16.4172 3.32812 16.6672 3.32812 13.0838Z" stroke="#E24C33" stroke-width="3"/>
<path d="M16.2695 23.3337V29.2504" stroke="#E24C33" stroke-width="3" stroke-linecap="round"/>
<path d="M23.9375 23.3337V29.2504" stroke="#E24C33" stroke-width="3" stroke-linecap="round"/>
<path d="M5.82812 16.6663L8.17812 31.0663C8.71146 34.2996 9.99479 36.6663 14.7615 36.6663H24.8115C29.9948 36.6663 30.7615 34.3996 31.3615 31.2663L34.1615 16.6663" stroke="#E24C33" stroke-width="3" stroke-linecap="round"/>
</svg>
