<svg width="233" height="241" viewBox="0 0 233 241" fill="none" xmlns="http://www.w3.org/2000/svg">
<path fill-rule="evenodd" clip-rule="evenodd" d="M39.3281 70.5022C39.3281 53.9339 52.29 40.5026 68.2792 40.5026H164.783C180.772 40.5026 193.734 53.9339 193.734 70.5022V170.501C193.734 187.069 180.772 200.501 164.783 200.501H68.2792C52.29 200.501 39.3281 187.069 39.3281 170.501V70.5022ZM152.306 107.573C156.075 103.668 156.075 97.336 152.306 93.4308C148.537 89.5256 142.427 89.5256 138.658 93.4308L106.881 126.359L94.4038 113.431C90.6351 109.525 84.5249 109.525 80.7561 113.431C76.9874 117.336 76.9874 123.667 80.7561 127.573L100.057 147.572C103.826 151.477 109.936 151.477 113.705 147.572L152.306 107.573Z" fill="#4884EE"/>
</svg>
