<svg width="902" height="731" viewBox="0 0 902 731" fill="none" xmlns="http://www.w3.org/2000/svg">
<rect width="902" height="731" fill="white"/>
<path d="M237.56 388.664V411H233.08V396.472L227.096 411H223.704L217.688 396.472V411H213.208V388.664H218.296L225.4 405.272L232.504 388.664H237.56ZM258.725 393.272V411H254.213V408.76C253.637 409.528 252.88 410.136 251.941 410.584C251.024 411.011 250.021 411.224 248.933 411.224C247.547 411.224 246.32 410.936 245.253 410.36C244.187 409.763 243.344 408.899 242.725 407.768C242.128 406.616 241.829 405.251 241.829 403.672V393.272H246.309V403.032C246.309 404.44 246.661 405.528 247.365 406.296C248.069 407.043 249.029 407.416 250.245 407.416C251.483 407.416 252.453 407.043 253.157 406.296C253.861 405.528 254.213 404.44 254.213 403.032V393.272H258.725ZM247.397 391.16C246.8 391.16 246.299 390.957 245.893 390.552C245.488 390.147 245.285 389.645 245.285 389.048C245.285 388.451 245.488 387.949 245.893 387.544C246.299 387.117 246.8 386.904 247.397 386.904C247.995 386.904 248.496 387.117 248.901 387.544C249.328 387.949 249.541 388.451 249.541 389.048C249.541 389.645 249.328 390.147 248.901 390.552C248.496 390.957 247.995 391.16 247.397 391.16ZM253.317 391.16C252.72 391.16 252.219 390.957 251.813 390.552C251.408 390.147 251.205 389.645 251.205 389.048C251.205 388.451 251.408 387.949 251.813 387.544C252.219 387.117 252.72 386.904 253.317 386.904C253.915 386.904 254.416 387.117 254.821 387.544C255.248 387.949 255.461 388.451 255.461 389.048C255.461 389.645 255.248 390.147 254.821 390.552C254.416 390.957 253.915 391.16 253.317 391.16ZM267.626 396.024C268.202 395.085 268.948 394.349 269.866 393.816C270.804 393.283 271.871 393.016 273.066 393.016V397.72H271.882C270.474 397.72 269.407 398.051 268.682 398.712C267.978 399.373 267.626 400.525 267.626 402.168V411H263.146V393.272H267.626V396.024ZM274.931 402.072C274.931 400.28 275.283 398.691 275.987 397.304C276.712 395.917 277.683 394.851 278.899 394.104C280.136 393.357 281.512 392.984 283.027 392.984C284.35 392.984 285.502 393.251 286.483 393.784C287.486 394.317 288.286 394.989 288.883 395.8V393.272H293.395V411H288.883V408.408C288.307 409.24 287.507 409.933 286.483 410.488C285.48 411.021 284.318 411.288 282.995 411.288C281.502 411.288 280.136 410.904 278.899 410.136C277.683 409.368 276.712 408.291 275.987 406.904C275.283 405.496 274.931 403.885 274.931 402.072ZM288.883 402.136C288.883 401.048 288.67 400.12 288.243 399.352C287.816 398.563 287.24 397.965 286.515 397.56C285.79 397.133 285.011 396.92 284.179 396.92C283.347 396.92 282.579 397.123 281.875 397.528C281.171 397.933 280.595 398.531 280.147 399.32C279.72 400.088 279.507 401.005 279.507 402.072C279.507 403.139 279.72 404.077 280.147 404.888C280.595 405.677 281.171 406.285 281.875 406.712C282.6 407.139 283.368 407.352 284.179 407.352C285.011 407.352 285.79 407.149 286.515 406.744C287.24 406.317 287.816 405.72 288.243 404.952C288.67 404.163 288.883 403.224 288.883 402.136ZM296.618 402.136C296.618 400.301 296.992 398.701 297.739 397.336C298.485 395.949 299.52 394.883 300.843 394.136C302.165 393.368 303.68 392.984 305.387 392.984C307.584 392.984 309.397 393.539 310.827 394.648C312.277 395.736 313.248 397.272 313.739 399.256H308.907C308.651 398.488 308.213 397.891 307.595 397.464C306.997 397.016 306.251 396.792 305.355 396.792C304.075 396.792 303.061 397.261 302.315 398.2C301.568 399.117 301.195 400.429 301.195 402.136C301.195 403.821 301.568 405.133 302.315 406.072C303.061 406.989 304.075 407.448 305.355 407.448C307.168 407.448 308.352 406.637 308.907 405.016H313.739C313.248 406.936 312.277 408.461 310.827 409.592C309.376 410.723 307.563 411.288 305.387 411.288C303.68 411.288 302.165 410.915 300.843 410.168C299.52 409.4 298.485 408.333 297.739 406.968C296.992 405.581 296.618 403.971 296.618 402.136ZM319.293 391.16C318.503 391.16 317.842 390.915 317.309 390.424C316.797 389.912 316.541 389.283 316.541 388.536C316.541 387.789 316.797 387.171 317.309 386.68C317.842 386.168 318.503 385.912 319.293 385.912C320.082 385.912 320.733 386.168 321.245 386.68C321.778 387.171 322.045 387.789 322.045 388.536C322.045 389.283 321.778 389.912 321.245 390.424C320.733 390.915 320.082 391.16 319.293 391.16ZM321.501 393.272V411H317.021V393.272H321.501ZM333.511 392.984C335.217 392.984 336.743 393.368 338.087 394.136C339.452 394.883 340.508 395.949 341.255 397.336C342.023 398.723 342.407 400.323 342.407 402.136C342.407 403.971 342.033 405.581 341.287 406.968C340.54 408.355 339.495 409.421 338.151 410.168C336.807 410.915 335.26 411.288 333.511 411.288C331.825 411.288 330.311 410.925 328.967 410.2C327.644 409.475 326.609 408.451 325.863 407.128C325.137 405.784 324.775 404.248 324.775 402.52C324.775 401.88 324.817 401.304 324.903 400.792H337.863C337.756 399.512 337.308 398.509 336.519 397.784C335.729 397.059 334.759 396.696 333.607 396.696C331.943 396.696 330.759 397.411 330.055 398.84H325.223C325.735 397.133 326.716 395.736 328.167 394.648C329.617 393.539 331.399 392.984 333.511 392.984ZM333.639 407.608C334.748 407.608 335.676 407.277 336.423 406.616C337.191 405.933 337.66 404.995 337.831 403.8H329.415C329.436 404.952 329.852 405.88 330.663 406.584C331.473 407.267 332.465 407.608 333.639 407.608ZM350.893 396.952V405.528C350.893 406.125 351.031 406.563 351.309 406.84C351.607 407.096 352.098 407.224 352.781 407.224H354.861V411H352.045C348.269 411 346.381 409.165 346.381 405.496V396.952H344.269V393.272H346.381V388.888H350.893V393.272H354.861V396.952H350.893ZM360.355 391.16C359.566 391.16 358.904 390.915 358.371 390.424C357.859 389.912 357.603 389.283 357.603 388.536C357.603 387.789 357.859 387.171 358.371 386.68C358.904 386.168 359.566 385.912 360.355 385.912C361.144 385.912 361.795 386.168 362.307 386.68C362.84 387.171 363.107 387.789 363.107 388.536C363.107 389.283 362.84 389.912 362.307 390.424C361.795 390.915 361.144 391.16 360.355 391.16ZM362.563 393.272V411H358.083V393.272H362.563ZM376.813 393.016C378.925 393.016 380.632 393.688 381.933 395.032C383.235 396.355 383.885 398.211 383.885 400.6V411H379.405V401.208C379.405 399.8 379.053 398.723 378.349 397.976C377.645 397.208 376.685 396.824 375.469 396.824C374.232 396.824 373.251 397.208 372.525 397.976C371.821 398.723 371.469 399.8 371.469 401.208V411H366.989V393.272H371.469V395.48C372.067 394.712 372.824 394.115 373.741 393.688C374.68 393.24 375.704 393.016 376.813 393.016ZM390.418 391.16C389.628 391.16 388.967 390.915 388.434 390.424C387.922 389.912 387.666 389.283 387.666 388.536C387.666 387.789 387.922 387.171 388.434 386.68C388.967 386.168 389.628 385.912 390.418 385.912C391.207 385.912 391.858 386.168 392.37 386.68C392.903 387.171 393.17 387.789 393.17 388.536C393.17 389.283 392.903 389.912 392.37 390.424C391.858 390.915 391.207 391.16 390.418 391.16ZM392.626 393.272V411H388.146V393.272H392.626ZM401.148 407.32H409.052V411H396.06V407.384L403.804 396.952H396.092V393.272H408.956V396.888L401.148 407.32ZM436.882 393.272V411H432.37V408.76C431.794 409.528 431.036 410.136 430.098 410.584C429.18 411.011 428.178 411.224 427.09 411.224C425.703 411.224 424.476 410.936 423.41 410.36C422.343 409.763 421.5 408.899 420.882 407.768C420.284 406.616 419.986 405.251 419.986 403.672V393.272H424.466V403.032C424.466 404.44 424.818 405.528 425.522 406.296C426.226 407.043 427.186 407.416 428.402 407.416C429.639 407.416 430.61 407.043 431.314 406.296C432.018 405.528 432.37 404.44 432.37 403.032V393.272H436.882ZM448.246 392.984C449.568 392.984 450.731 393.251 451.734 393.784C452.736 394.296 453.526 394.968 454.102 395.8V393.272H458.614V411.128C458.614 412.771 458.283 414.232 457.622 415.512C456.96 416.813 455.968 417.837 454.646 418.584C453.323 419.352 451.723 419.736 449.846 419.736C447.328 419.736 445.259 419.149 443.638 417.976C442.038 416.803 441.131 415.203 440.918 413.176H445.366C445.6 413.987 446.102 414.627 446.87 415.096C447.659 415.587 448.608 415.832 449.718 415.832C451.019 415.832 452.075 415.437 452.886 414.648C453.696 413.88 454.102 412.707 454.102 411.128V408.376C453.526 409.208 452.726 409.901 451.702 410.456C450.699 411.011 449.547 411.288 448.246 411.288C446.752 411.288 445.387 410.904 444.15 410.136C442.912 409.368 441.931 408.291 441.206 406.904C440.502 405.496 440.15 403.885 440.15 402.072C440.15 400.28 440.502 398.691 441.206 397.304C441.931 395.917 442.902 394.851 444.118 394.104C445.355 393.357 446.731 392.984 448.246 392.984ZM454.102 402.136C454.102 401.048 453.888 400.12 453.462 399.352C453.035 398.563 452.459 397.965 451.734 397.56C451.008 397.133 450.23 396.92 449.398 396.92C448.566 396.92 447.798 397.123 447.094 397.528C446.39 397.933 445.814 398.531 445.366 399.32C444.939 400.088 444.726 401.005 444.726 402.072C444.726 403.139 444.939 404.077 445.366 404.888C445.814 405.677 446.39 406.285 447.094 406.712C447.819 407.139 448.587 407.352 449.398 407.352C450.23 407.352 451.008 407.149 451.734 406.744C452.459 406.317 453.035 405.72 453.462 404.952C453.888 404.163 454.102 403.224 454.102 402.136ZM455.126 386.936C455.126 388.472 454.667 389.677 453.75 390.552C452.832 391.427 451.584 391.864 450.006 391.864C448.47 391.864 447.232 391.427 446.294 390.552C445.376 389.656 444.918 388.44 444.918 386.904V386.264H447.286C447.286 386.989 447.488 387.544 447.894 387.928C448.299 388.291 449.003 388.472 450.006 388.472C451.008 388.472 451.712 388.291 452.118 387.928C452.523 387.544 452.726 386.989 452.726 386.264H455.126V386.936ZM479.725 393.272V411H475.213V408.76C474.637 409.528 473.88 410.136 472.941 410.584C472.024 411.011 471.021 411.224 469.933 411.224C468.547 411.224 467.32 410.936 466.253 410.36C465.187 409.763 464.344 408.899 463.725 407.768C463.128 406.616 462.829 405.251 462.829 403.672V393.272H467.309V403.032C467.309 404.44 467.661 405.528 468.365 406.296C469.069 407.043 470.029 407.416 471.245 407.416C472.483 407.416 473.453 407.043 474.157 406.296C474.861 405.528 475.213 404.44 475.213 403.032V393.272H479.725ZM488.626 396.024C489.202 395.085 489.948 394.349 490.866 393.816C491.804 393.283 492.871 393.016 494.066 393.016V397.72H492.882C491.474 397.72 490.407 398.051 489.682 398.712C488.978 399.373 488.626 400.525 488.626 402.168V411H484.146V393.272H488.626V396.024ZM501.563 387.32V411H497.083V387.32H501.563ZM504.837 402.072C504.837 400.28 505.189 398.691 505.893 397.304C506.619 395.917 507.589 394.851 508.805 394.104C510.043 393.357 511.419 392.984 512.933 392.984C514.256 392.984 515.408 393.251 516.389 393.784C517.392 394.317 518.192 394.989 518.789 395.8V393.272H523.301V411H518.789V408.408C518.213 409.24 517.413 409.933 516.389 410.488C515.387 411.021 514.224 411.288 512.901 411.288C511.408 411.288 510.043 410.904 508.805 410.136C507.589 409.368 506.619 408.291 505.893 406.904C505.189 405.496 504.837 403.885 504.837 402.072ZM518.789 402.136C518.789 401.048 518.576 400.12 518.149 399.352C517.723 398.563 517.147 397.965 516.421 397.56C515.696 397.133 514.917 396.92 514.085 396.92C513.253 396.92 512.485 397.123 511.781 397.528C511.077 397.933 510.501 398.531 510.053 399.32C509.627 400.088 509.413 401.005 509.413 402.072C509.413 403.139 509.627 404.077 510.053 404.888C510.501 405.677 511.077 406.285 511.781 406.712C512.507 407.139 513.275 407.352 514.085 407.352C514.917 407.352 515.696 407.149 516.421 406.744C517.147 406.317 517.723 405.72 518.149 404.952C518.576 404.163 518.789 403.224 518.789 402.136ZM542.246 392.984C543.568 392.984 544.731 393.251 545.734 393.784C546.736 394.296 547.526 394.968 548.102 395.8V393.272H552.614V411.128C552.614 412.771 552.283 414.232 551.622 415.512C550.96 416.813 549.968 417.837 548.646 418.584C547.323 419.352 545.723 419.736 543.846 419.736C541.328 419.736 539.259 419.149 537.638 417.976C536.038 416.803 535.131 415.203 534.918 413.176H539.366C539.6 413.987 540.102 414.627 540.87 415.096C541.659 415.587 542.608 415.832 543.718 415.832C545.019 415.832 546.075 415.437 546.886 414.648C547.696 413.88 548.102 412.707 548.102 411.128V408.376C547.526 409.208 546.726 409.901 545.702 410.456C544.699 411.011 543.547 411.288 542.246 411.288C540.752 411.288 539.387 410.904 538.15 410.136C536.912 409.368 535.931 408.291 535.206 406.904C534.502 405.496 534.15 403.885 534.15 402.072C534.15 400.28 534.502 398.691 535.206 397.304C535.931 395.917 536.902 394.851 538.118 394.104C539.355 393.357 540.731 392.984 542.246 392.984ZM548.102 402.136C548.102 401.048 547.888 400.12 547.462 399.352C547.035 398.563 546.459 397.965 545.734 397.56C545.008 397.133 544.23 396.92 543.398 396.92C542.566 396.92 541.798 397.123 541.094 397.528C540.39 397.933 539.814 398.531 539.366 399.32C538.939 400.088 538.726 401.005 538.726 402.072C538.726 403.139 538.939 404.077 539.366 404.888C539.814 405.677 540.39 406.285 541.094 406.712C541.819 407.139 542.587 407.352 543.398 407.352C544.23 407.352 545.008 407.149 545.734 406.744C546.459 406.317 547.035 405.72 547.462 404.952C547.888 404.163 548.102 403.224 548.102 402.136ZM564.861 411.288C563.155 411.288 561.619 410.915 560.253 410.168C558.888 409.4 557.811 408.323 557.021 406.936C556.253 405.549 555.869 403.949 555.869 402.136C555.869 400.323 556.264 398.723 557.053 397.336C557.864 395.949 558.963 394.883 560.349 394.136C561.736 393.368 563.283 392.984 564.989 392.984C566.696 392.984 568.243 393.368 569.629 394.136C571.016 394.883 572.104 395.949 572.893 397.336C573.704 398.723 574.109 400.323 574.109 402.136C574.109 403.949 573.693 405.549 572.861 406.936C572.051 408.323 570.941 409.4 569.533 410.168C568.147 410.915 566.589 411.288 564.861 411.288ZM564.861 407.384C565.672 407.384 566.429 407.192 567.133 406.808C567.859 406.403 568.435 405.805 568.861 405.016C569.288 404.227 569.501 403.267 569.501 402.136C569.501 400.451 569.053 399.16 568.157 398.264C567.283 397.347 566.205 396.888 564.925 396.888C563.645 396.888 562.568 397.347 561.693 398.264C560.84 399.16 560.413 400.451 560.413 402.136C560.413 403.821 560.829 405.123 561.661 406.04C562.515 406.936 563.581 407.384 564.861 407.384ZM562.205 390.936C561.608 390.936 561.107 390.733 560.701 390.328C560.296 389.923 560.093 389.421 560.093 388.824C560.093 388.227 560.296 387.725 560.701 387.32C561.107 386.893 561.608 386.68 562.205 386.68C562.803 386.68 563.304 386.893 563.709 387.32C564.136 387.725 564.349 388.227 564.349 388.824C564.349 389.421 564.136 389.923 563.709 390.328C563.304 390.733 562.803 390.936 562.205 390.936ZM568.125 390.936C567.528 390.936 567.027 390.733 566.621 390.328C566.216 389.923 566.013 389.421 566.013 388.824C566.013 388.227 566.216 387.725 566.621 387.32C567.027 386.893 567.528 386.68 568.125 386.68C568.723 386.68 569.224 386.893 569.629 387.32C570.056 387.725 570.269 388.227 570.269 388.824C570.269 389.421 570.056 389.923 569.629 390.328C569.224 390.733 568.723 390.936 568.125 390.936ZM587.22 393.016C589.332 393.016 591.038 393.688 592.34 395.032C593.641 396.355 594.292 398.211 594.292 400.6V411H589.812V401.208C589.812 399.8 589.46 398.723 588.756 397.976C588.052 397.208 587.092 396.824 585.876 396.824C584.638 396.824 583.657 397.208 582.932 397.976C582.228 398.723 581.876 399.8 581.876 401.208V411H577.396V393.272H581.876V395.48C582.473 394.712 583.23 394.115 584.148 393.688C585.086 393.24 586.11 393.016 587.22 393.016ZM597.4 402.072C597.4 400.28 597.752 398.691 598.456 397.304C599.181 395.917 600.162 394.851 601.4 394.104C602.637 393.357 604.013 392.984 605.528 392.984C606.68 392.984 607.778 393.24 608.824 393.752C609.869 394.243 610.701 394.904 611.32 395.736V387.32H615.864V411H611.32V408.376C610.765 409.251 609.986 409.955 608.984 410.488C607.981 411.021 606.818 411.288 605.496 411.288C604.002 411.288 602.637 410.904 601.4 410.136C600.162 409.368 599.181 408.291 598.456 406.904C597.752 405.496 597.4 403.885 597.4 402.072ZM611.352 402.136C611.352 401.048 611.138 400.12 610.712 399.352C610.285 398.563 609.709 397.965 608.984 397.56C608.258 397.133 607.48 396.92 606.648 396.92C605.816 396.92 605.048 397.123 604.344 397.528C603.64 397.933 603.064 398.531 602.616 399.32C602.189 400.088 601.976 401.005 601.976 402.072C601.976 403.139 602.189 404.077 602.616 404.888C603.064 405.677 603.64 406.285 604.344 406.712C605.069 407.139 605.837 407.352 606.648 407.352C607.48 407.352 608.258 407.149 608.984 406.744C609.709 406.317 610.285 405.72 610.712 404.952C611.138 404.163 611.352 403.224 611.352 402.136ZM627.823 392.984C629.53 392.984 631.055 393.368 632.399 394.136C633.765 394.883 634.821 395.949 635.567 397.336C636.335 398.723 636.719 400.323 636.719 402.136C636.719 403.971 636.346 405.581 635.599 406.968C634.853 408.355 633.807 409.421 632.463 410.168C631.119 410.915 629.573 411.288 627.823 411.288C626.138 411.288 624.623 410.925 623.279 410.2C621.957 409.475 620.922 408.451 620.175 407.128C619.45 405.784 619.087 404.248 619.087 402.52C619.087 401.88 619.13 401.304 619.215 400.792H632.175C632.069 399.512 631.621 398.509 630.831 397.784C630.042 397.059 629.071 396.696 627.919 396.696C626.255 396.696 625.071 397.411 624.367 398.84H619.535C620.047 397.133 621.029 395.736 622.479 394.648C623.93 393.539 625.711 392.984 627.823 392.984ZM627.951 407.608C629.061 407.608 629.989 407.277 630.735 406.616C631.503 405.933 631.973 404.995 632.143 403.8H623.727C623.749 404.952 624.165 405.88 624.975 406.584C625.786 407.267 626.778 407.608 627.951 407.608ZM644.469 396.024C645.045 395.085 645.792 394.349 646.709 393.816C647.648 393.283 648.715 393.016 649.909 393.016V397.72H648.725C647.317 397.72 646.251 398.051 645.525 398.712C644.821 399.373 644.469 400.525 644.469 402.168V411H639.989V393.272H644.469V396.024ZM655.199 391.16C654.409 391.16 653.748 390.915 653.215 390.424C652.703 389.912 652.447 389.283 652.447 388.536C652.447 387.789 652.703 387.171 653.215 386.68C653.748 386.168 654.409 385.912 655.199 385.912C655.988 385.912 656.639 386.168 657.151 386.68C657.684 387.171 657.951 387.789 657.951 388.536C657.951 389.283 657.684 389.912 657.151 390.424C656.639 390.915 655.988 391.16 655.199 391.16ZM657.407 393.272V411H652.927V393.272H657.407ZM666.313 387.32V411H661.833V387.32H666.313ZM669.587 402.072C669.587 400.28 669.939 398.691 670.643 397.304C671.369 395.917 672.35 394.851 673.587 394.104C674.825 393.357 676.201 392.984 677.715 392.984C678.867 392.984 679.966 393.24 681.011 393.752C682.057 394.243 682.889 394.904 683.507 395.736V387.32H688.051V411H683.507V408.376C682.953 409.251 682.174 409.955 681.171 410.488C680.169 411.021 679.006 411.288 677.683 411.288C676.19 411.288 674.825 410.904 673.587 410.136C672.35 409.368 671.369 408.291 670.643 406.904C669.939 405.496 669.587 403.885 669.587 402.072ZM683.539 402.136C683.539 401.048 683.326 400.12 682.899 399.352C682.473 398.563 681.897 397.965 681.171 397.56C680.446 397.133 679.667 396.92 678.835 396.92C678.003 396.92 677.235 397.123 676.531 397.528C675.827 397.933 675.251 398.531 674.803 399.32C674.377 400.088 674.163 401.005 674.163 402.072C674.163 403.139 674.377 404.077 674.803 404.888C675.251 405.677 675.827 406.285 676.531 406.712C677.257 407.139 678.025 407.352 678.835 407.352C679.667 407.352 680.446 407.149 681.171 406.744C681.897 406.317 682.473 405.72 682.899 404.952C683.326 404.163 683.539 403.224 683.539 402.136ZM694.699 391.16C693.909 391.16 693.248 390.915 692.715 390.424C692.203 389.912 691.947 389.283 691.947 388.536C691.947 387.789 692.203 387.171 692.715 386.68C693.248 386.168 693.909 385.912 694.699 385.912C695.488 385.912 696.139 386.168 696.651 386.68C697.184 387.171 697.451 387.789 697.451 388.536C697.451 389.283 697.184 389.912 696.651 390.424C696.139 390.915 695.488 391.16 694.699 391.16ZM696.907 393.272V411H692.427V393.272H696.907ZM703.317 411.224C702.506 411.224 701.834 410.979 701.301 410.488C700.789 409.976 700.533 409.347 700.533 408.6C700.533 407.853 700.789 407.235 701.301 406.744C701.834 406.232 702.506 405.976 703.317 405.976C704.106 405.976 704.757 406.232 705.269 406.744C705.781 407.235 706.037 407.853 706.037 408.6C706.037 409.347 705.781 409.976 705.269 410.488C704.757 410.979 704.106 411.224 703.317 411.224Z" fill="black"/>
<path d="M374.408 436.664V440.28H368.456V459H363.976V440.28H358.024V436.664H374.408ZM385.261 440.984C386.967 440.984 388.493 441.368 389.837 442.136C391.202 442.883 392.258 443.949 393.005 445.336C393.773 446.723 394.157 448.323 394.157 450.136C394.157 451.971 393.783 453.581 393.037 454.968C392.29 456.355 391.245 457.421 389.901 458.168C388.557 458.915 387.01 459.288 385.261 459.288C383.575 459.288 382.061 458.925 380.717 458.2C379.394 457.475 378.359 456.451 377.613 455.128C376.887 453.784 376.525 452.248 376.525 450.52C376.525 449.88 376.567 449.304 376.653 448.792H389.613C389.506 447.512 389.058 446.509 388.269 445.784C387.479 445.059 386.509 444.696 385.357 444.696C383.693 444.696 382.509 445.411 381.805 446.84H376.973C377.485 445.133 378.466 443.736 379.917 442.648C381.367 441.539 383.149 440.984 385.261 440.984ZM385.389 455.608C386.498 455.608 387.426 455.277 388.173 454.616C388.941 453.933 389.41 452.995 389.581 451.8H381.165C381.186 452.952 381.602 453.88 382.413 454.584C383.223 455.267 384.215 455.608 385.389 455.608ZM405.619 460.44C406.792 460.44 407.773 460.739 408.563 461.336C409.373 461.933 409.779 462.797 409.779 463.928C409.779 465.08 409.363 465.965 408.531 466.584C407.72 467.203 406.717 467.512 405.523 467.512H400.979V464.888H404.787C405.299 464.888 405.683 464.813 405.939 464.664C406.216 464.515 406.355 464.248 406.355 463.864C406.355 463.48 406.216 463.213 405.939 463.064C405.683 462.936 405.299 462.872 404.787 462.872H402.803V459.192C400.968 458.957 399.475 458.307 398.323 457.24C397.171 456.173 396.552 454.893 396.467 453.4H400.979C401.064 454.083 401.395 454.648 401.971 455.096C402.568 455.544 403.304 455.768 404.179 455.768C405.032 455.768 405.693 455.597 406.163 455.256C406.653 454.915 406.899 454.477 406.899 453.944C406.899 453.368 406.6 452.941 406.003 452.664C405.427 452.365 404.499 452.045 403.219 451.704C401.896 451.384 400.808 451.053 399.955 450.712C399.123 450.371 398.397 449.848 397.779 449.144C397.181 448.44 396.883 447.491 396.883 446.296C396.883 445.315 397.16 444.419 397.715 443.608C398.291 442.797 399.101 442.157 400.147 441.688C401.213 441.219 402.461 440.984 403.891 440.984C406.003 440.984 407.688 441.517 408.947 442.584C410.205 443.629 410.899 445.048 411.027 446.84H406.739C406.675 446.136 406.376 445.581 405.843 445.176C405.331 444.749 404.637 444.536 403.763 444.536C402.952 444.536 402.323 444.685 401.875 444.984C401.448 445.283 401.235 445.699 401.235 446.232C401.235 446.829 401.533 447.288 402.131 447.608C402.728 447.907 403.656 448.216 404.915 448.536C406.195 448.856 407.251 449.187 408.083 449.528C408.915 449.869 409.629 450.403 410.227 451.128C410.845 451.832 411.165 452.771 411.187 453.944C411.187 455.309 410.685 456.472 409.683 457.432C408.701 458.392 407.347 458.979 405.619 459.192V460.44ZM422.448 440.984C424.155 440.984 425.68 441.368 427.024 442.136C428.39 442.883 429.446 443.949 430.192 445.336C430.96 446.723 431.344 448.323 431.344 450.136C431.344 451.971 430.971 453.581 430.224 454.968C429.478 456.355 428.432 457.421 427.088 458.168C425.744 458.915 424.198 459.288 422.448 459.288C420.763 459.288 419.248 458.925 417.904 458.2C416.582 457.475 415.547 456.451 414.8 455.128C414.075 453.784 413.712 452.248 413.712 450.52C413.712 449.88 413.755 449.304 413.84 448.792H426.8C426.694 447.512 426.246 446.509 425.456 445.784C424.667 445.059 423.696 444.696 422.544 444.696C420.88 444.696 419.696 445.411 418.992 446.84H414.16C414.672 445.133 415.654 443.736 417.104 442.648C418.555 441.539 420.336 440.984 422.448 440.984ZM422.576 455.608C423.686 455.608 424.614 455.277 425.36 454.616C426.128 453.933 426.598 452.995 426.768 451.8H418.352C418.374 452.952 418.79 453.88 419.6 454.584C420.411 455.267 421.403 455.608 422.576 455.608ZM445.11 459L439.094 451.448V459H434.614V435.32H439.094V448.792L445.046 441.272H450.87L443.062 450.168L450.934 459H445.11ZM463.798 459L457.782 451.448V459H453.302V435.32H457.782V448.792L463.734 441.272H469.558L461.75 450.168L469.622 459H463.798ZM488.725 441.272V459H484.213V456.76C483.637 457.528 482.88 458.136 481.941 458.584C481.024 459.011 480.021 459.224 478.933 459.224C477.547 459.224 476.32 458.936 475.253 458.36C474.187 457.763 473.344 456.899 472.725 455.768C472.128 454.616 471.829 453.251 471.829 451.672V441.272H476.309V451.032C476.309 452.44 476.661 453.528 477.365 454.296C478.069 455.043 479.029 455.416 480.245 455.416C481.483 455.416 482.453 455.043 483.157 454.296C483.861 453.528 484.213 452.44 484.213 451.032V441.272H488.725ZM477.397 439.16C476.8 439.16 476.299 438.957 475.893 438.552C475.488 438.147 475.285 437.645 475.285 437.048C475.285 436.451 475.488 435.949 475.893 435.544C476.299 435.117 476.8 434.904 477.397 434.904C477.995 434.904 478.496 435.117 478.901 435.544C479.328 435.949 479.541 436.451 479.541 437.048C479.541 437.645 479.328 438.147 478.901 438.552C478.496 438.957 477.995 439.16 477.397 439.16ZM483.317 439.16C482.72 439.16 482.219 438.957 481.813 438.552C481.408 438.147 481.205 437.645 481.205 437.048C481.205 436.451 481.408 435.949 481.813 435.544C482.219 435.117 482.72 434.904 483.317 434.904C483.915 434.904 484.416 435.117 484.821 435.544C485.248 435.949 485.461 436.451 485.461 437.048C485.461 437.645 485.248 438.147 484.821 438.552C484.416 438.957 483.915 439.16 483.317 439.16ZM497.626 444.024C498.202 443.085 498.948 442.349 499.866 441.816C500.804 441.283 501.871 441.016 503.066 441.016V445.72H501.882C500.474 445.72 499.407 446.051 498.682 446.712C497.978 447.373 497.626 448.525 497.626 450.168V459H493.146V441.272H497.626V444.024ZM510.563 435.32V459H506.083V435.32H510.563ZM522.573 440.984C524.28 440.984 525.805 441.368 527.149 442.136C528.515 442.883 529.571 443.949 530.317 445.336C531.085 446.723 531.469 448.323 531.469 450.136C531.469 451.971 531.096 453.581 530.349 454.968C529.603 456.355 528.557 457.421 527.213 458.168C525.869 458.915 524.323 459.288 522.573 459.288C520.888 459.288 519.373 458.925 518.029 458.2C516.707 457.475 515.672 456.451 514.925 455.128C514.2 453.784 513.837 452.248 513.837 450.52C513.837 449.88 513.88 449.304 513.965 448.792H526.925C526.819 447.512 526.371 446.509 525.581 445.784C524.792 445.059 523.821 444.696 522.669 444.696C521.005 444.696 519.821 445.411 519.117 446.84H514.285C514.797 445.133 515.779 443.736 517.229 442.648C518.68 441.539 520.461 440.984 522.573 440.984ZM522.701 455.608C523.811 455.608 524.739 455.277 525.485 454.616C526.253 453.933 526.723 452.995 526.893 451.8H518.477C518.499 452.952 518.915 453.88 519.725 454.584C520.536 455.267 521.528 455.608 522.701 455.608ZM539.219 444.024C539.795 443.085 540.542 442.349 541.459 441.816C542.398 441.283 543.465 441.016 544.659 441.016V445.72H543.475C542.067 445.72 541.001 446.051 540.275 446.712C539.571 447.373 539.219 448.525 539.219 450.168V459H534.739V441.272H539.219V444.024ZM549.661 459.224C548.85 459.224 548.178 458.979 547.645 458.488C547.133 457.976 546.877 457.347 546.877 456.6C546.877 455.853 547.133 455.235 547.645 454.744C548.178 454.232 548.85 453.976 549.661 453.976C550.45 453.976 551.101 454.232 551.613 454.744C552.125 455.235 552.381 455.853 552.381 456.6C552.381 457.347 552.125 457.976 551.613 458.488C551.101 458.979 550.45 459.224 549.661 459.224Z" fill="black"/>
<rect x="321" y="516" width="262.693" height="68.3271" rx="10" fill="#4884EE"/>
<path d="M427.688 547.36C428.664 547.568 429.448 548.056 430.04 548.824C430.632 549.576 430.928 550.44 430.928 551.416C430.928 552.824 430.432 553.944 429.44 554.776C428.464 555.592 427.096 556 425.336 556H417.488V539.152H425.072C426.784 539.152 428.12 539.544 429.08 540.328C430.056 541.112 430.544 542.176 430.544 543.52C430.544 544.512 430.28 545.336 429.752 545.992C429.24 546.648 428.552 547.104 427.688 547.36ZM421.592 545.968H424.28C424.952 545.968 425.464 545.824 425.816 545.536C426.184 545.232 426.368 544.792 426.368 544.216C426.368 543.64 426.184 543.2 425.816 542.896C425.464 542.592 424.952 542.44 424.28 542.44H421.592V545.968ZM424.616 552.688C425.304 552.688 425.832 552.536 426.2 552.232C426.584 551.912 426.776 551.456 426.776 550.864C426.776 550.272 426.576 549.808 426.176 549.472C425.792 549.136 425.256 548.968 424.568 548.968H421.592V552.688H424.616ZM432.492 549.28C432.492 547.904 432.748 546.696 433.26 545.656C433.788 544.616 434.5 543.816 435.396 543.256C436.292 542.696 437.292 542.416 438.396 542.416C439.34 542.416 440.164 542.608 440.868 542.992C441.588 543.376 442.14 543.88 442.524 544.504V542.608H446.628V556H442.524V554.104C442.124 554.728 441.564 555.232 440.844 555.616C440.14 556 439.316 556.192 438.372 556.192C437.284 556.192 436.292 555.912 435.396 555.352C434.5 554.776 433.788 553.968 433.26 552.928C432.748 551.872 432.492 550.656 432.492 549.28ZM442.524 549.304C442.524 548.28 442.236 547.472 441.66 546.88C441.1 546.288 440.412 545.992 439.596 545.992C438.78 545.992 438.084 546.288 437.508 546.88C436.948 547.456 436.668 548.256 436.668 549.28C436.668 550.304 436.948 551.12 437.508 551.728C438.084 552.32 438.78 552.616 439.596 552.616C440.412 552.616 441.1 552.32 441.66 551.728C442.236 551.136 442.524 550.328 442.524 549.304ZM454.685 542.416C455.629 542.416 456.453 542.608 457.157 542.992C457.877 543.376 458.429 543.88 458.813 544.504V542.608H462.917V555.976C462.917 557.208 462.669 558.32 462.173 559.312C461.693 560.32 460.949 561.12 459.941 561.712C458.949 562.304 457.709 562.6 456.221 562.6C454.237 562.6 452.629 562.128 451.397 561.184C450.165 560.256 449.461 558.992 449.285 557.392H453.341C453.469 557.904 453.773 558.304 454.253 558.592C454.733 558.896 455.325 559.048 456.029 559.048C456.877 559.048 457.549 558.8 458.045 558.304C458.557 557.824 458.813 557.048 458.813 555.976V554.08C458.413 554.704 457.861 555.216 457.157 555.616C456.453 556 455.629 556.192 454.685 556.192C453.581 556.192 452.581 555.912 451.685 555.352C450.789 554.776 450.077 553.968 449.549 552.928C449.037 551.872 448.781 550.656 448.781 549.28C448.781 547.904 449.037 546.696 449.549 545.656C450.077 544.616 450.789 543.816 451.685 543.256C452.581 542.696 453.581 542.416 454.685 542.416ZM458.813 549.304C458.813 548.28 458.525 547.472 457.949 546.88C457.389 546.288 456.701 545.992 455.885 545.992C455.069 545.992 454.373 546.288 453.797 546.88C453.237 547.456 452.957 548.256 452.957 549.28C452.957 550.304 453.237 551.12 453.797 551.728C454.373 552.32 455.069 552.616 455.885 552.616C456.701 552.616 457.389 552.32 457.949 551.728C458.525 551.136 458.813 550.328 458.813 549.304ZM460.445 537.496C460.445 538.808 460.069 539.824 459.317 540.544C458.565 541.264 457.573 541.624 456.341 541.624C455.109 541.624 454.117 541.264 453.365 540.544C452.629 539.808 452.261 538.784 452.261 537.472V537.016H454.301C454.301 537.544 454.453 537.944 454.757 538.216C455.061 538.488 455.589 538.624 456.341 538.624C457.093 538.624 457.621 538.488 457.925 538.216C458.229 537.944 458.381 537.544 458.381 537.016H460.445V537.496ZM469.99 538.24V556H465.886V538.24H469.99ZM472.149 549.28C472.149 547.904 472.405 546.696 472.917 545.656C473.445 544.616 474.157 543.816 475.053 543.256C475.949 542.696 476.949 542.416 478.053 542.416C478.997 542.416 479.821 542.608 480.525 542.992C481.245 543.376 481.797 543.88 482.181 544.504V542.608H486.285V556H482.181V554.104C481.781 554.728 481.221 555.232 480.501 555.616C479.797 556 478.973 556.192 478.029 556.192C476.941 556.192 475.949 555.912 475.053 555.352C474.157 554.776 473.445 553.968 472.917 552.928C472.405 551.872 472.149 550.656 472.149 549.28ZM482.181 549.304C482.181 548.28 481.893 547.472 481.317 546.88C480.757 546.288 480.069 545.992 479.253 545.992C478.437 545.992 477.741 546.288 477.165 546.88C476.605 547.456 476.325 548.256 476.325 549.28C476.325 550.304 476.605 551.12 477.165 551.728C477.741 552.32 478.437 552.616 479.253 552.616C480.069 552.616 480.757 552.32 481.317 551.728C481.893 551.136 482.181 550.328 482.181 549.304Z" fill="white"/>
<path fill-rule="evenodd" clip-rule="evenodd" d="M374.328 195.502C374.328 178.934 387.29 165.503 403.279 165.503H499.783C515.772 165.503 528.734 178.934 528.734 195.502V295.501C528.734 312.069 515.772 325.501 499.783 325.501H403.279C387.29 325.501 374.328 312.069 374.328 295.501V195.502ZM487.306 232.573C491.075 228.668 491.075 222.336 487.306 218.431C483.537 214.526 477.427 214.526 473.658 218.431L441.881 251.359L429.404 238.431C425.635 234.525 419.525 234.525 415.756 238.431C411.987 242.336 411.987 248.667 415.756 252.573L435.057 272.572C438.826 276.477 444.936 276.477 448.705 272.572L487.306 232.573Z" fill="#4884EE"/>
</svg>
