<svg width="40" height="40" viewBox="0 0 40 40" fill="none" xmlns="http://www.w3.org/2000/svg">
<path d="M24.9987 3.33325V19.9999C24.9987 21.8333 23.4987 23.3333 21.6654 23.3333H3.33203V12.6999C4.5487 14.1499 6.41541 15.0499 8.48208 14.9999C10.1654 14.9666 11.682 14.3166 12.8154 13.2333C13.332 12.7999 13.7654 12.2499 14.0987 11.6499C14.6987 10.6332 15.032 9.43321 14.9987 8.18321C14.9487 6.23321 14.0821 4.51659 12.7321 3.33325H24.9987Z" stroke="#E24C33" stroke-width="2.5" stroke-linecap="round" stroke-linejoin="round"/>
<path d="M36.6654 23.3333V28.3333C36.6654 31.0999 34.432 33.3333 31.6654 33.3333H29.9987C29.9987 31.4999 28.4987 29.9999 26.6654 29.9999C24.832 29.9999 23.332 31.4999 23.332 33.3333H16.6654C16.6654 31.4999 15.1654 29.9999 13.332 29.9999C11.4987 29.9999 9.9987 31.4999 9.9987 33.3333H8.33203C5.56536 33.3333 3.33203 31.0999 3.33203 28.3333V23.3333H21.6654C23.4987 23.3333 24.9987 21.8333 24.9987 19.9999V8.33325H28.0654C29.2654 8.33325 30.3654 8.98327 30.9654 10.0166L33.8153 14.9999H31.6654C30.7487 14.9999 29.9987 15.7499 29.9987 16.6666V21.6666C29.9987 22.5833 30.7487 23.3333 31.6654 23.3333H36.6654Z" stroke="#E24C33" stroke-width="2.5" stroke-linecap="round" stroke-linejoin="round"/>
<path d="M13.3333 36.6667C15.1743 36.6667 16.6667 35.1743 16.6667 33.3333C16.6667 31.4924 15.1743 30 13.3333 30C11.4924 30 10 31.4924 10 33.3333C10 35.1743 11.4924 36.6667 13.3333 36.6667Z" stroke="#E24C33" stroke-width="2.5" stroke-linecap="round" stroke-linejoin="round"/>
<path d="M26.6654 36.6667C28.5063 36.6667 29.9987 35.1743 29.9987 33.3333C29.9987 31.4924 28.5063 30 26.6654 30C24.8244 30 23.332 31.4924 23.332 33.3333C23.332 35.1743 24.8244 36.6667 26.6654 36.6667Z" stroke="#E24C33" stroke-width="2.5" stroke-linecap="round" stroke-linejoin="round"/>
<path d="M36.6667 20V23.3333H31.6667C30.75 23.3333 30 22.5833 30 21.6667V16.6667C30 15.75 30.75 15 31.6667 15H33.8166L36.6667 20Z" stroke="#E24C33" stroke-width="2.5" stroke-linecap="round" stroke-linejoin="round"/>
<path d="M14.9993 8.18291C15.0326 9.43291 14.6993 10.6329 14.0993 11.6496C13.766 12.2496 13.3326 12.7996 12.816 13.233C11.6826 14.3163 10.166 14.9663 8.48269 14.9996C6.41602 15.0496 4.54931 14.1496 3.33264 12.6996C3.09931 12.4496 2.89932 12.1663 2.71598 11.883C2.06598 10.8996 1.69931 9.733 1.66598 8.483C1.61598 6.383 2.5493 4.46628 4.0493 3.21628C5.18263 2.28295 6.61593 1.69963 8.1826 1.66629C9.9326 1.63296 11.5327 2.26629 12.7327 3.33296C14.0827 4.51629 14.9493 6.23291 14.9993 8.18291Z" stroke="#E24C33" stroke-width="2.5" stroke-miterlimit="10" stroke-linecap="round" stroke-linejoin="round"/>
<path d="M5.73438 8.38298L7.41772 9.98291L10.901 6.61621" stroke="#E24C33" stroke-width="2.5" stroke-linecap="round" stroke-linejoin="round"/>
</svg>
