<svg width="31" height="29" viewBox="0 0 31 29" fill="none" xmlns="http://www.w3.org/2000/svg">
<path opacity="0.2" d="M15.5 25.375C21.9203 25.375 27.125 20.5061 27.125 14.5C27.125 8.4939 21.9203 3.625 15.5 3.625C9.07969 3.625 3.875 8.4939 3.875 14.5C3.875 20.5061 9.07969 25.375 15.5 25.375Z" fill="#6C727F"/>
<path fill-rule="evenodd" clip-rule="evenodd" d="M15.5 4.53125C9.61472 4.53125 4.84375 8.99441 4.84375 14.5C4.84375 20.0056 9.61472 24.4688 15.5 24.4688C21.3853 24.4688 26.1562 20.0056 26.1562 14.5C26.1562 8.99441 21.3853 4.53125 15.5 4.53125ZM2.90625 14.5C2.90625 7.9934 8.54466 2.71875 15.5 2.71875C22.4553 2.71875 28.0938 7.9934 28.0938 14.5C28.0938 21.0066 22.4553 26.2812 15.5 26.2812C8.54466 26.2812 2.90625 21.0066 2.90625 14.5Z" fill="#6C727F"/>
<path fill-rule="evenodd" clip-rule="evenodd" d="M15.5 8.15625C16.035 8.15625 16.4688 8.56199 16.4688 9.0625V15.4062C16.4688 15.9068 16.035 16.3125 15.5 16.3125C14.965 16.3125 14.5312 15.9068 14.5312 15.4062V9.0625C14.5312 8.56199 14.965 8.15625 15.5 8.15625Z" fill="#6C727F"/>
<path d="M15.5 20.8438C16.3025 20.8438 16.9531 20.2351 16.9531 19.4844C16.9531 18.7336 16.3025 18.125 15.5 18.125C14.6975 18.125 14.0469 18.7336 14.0469 19.4844C14.0469 20.2351 14.6975 20.8438 15.5 20.8438Z" fill="#6C727F"/>
</svg>
