<svg width="40" height="40" viewBox="0 0 40 40" fill="none" xmlns="http://www.w3.org/2000/svg">
<path d="M11.168 15.4329L20.0013 20.5495L28.768 15.4662" stroke="#E24C33" stroke-width="2.5" stroke-linecap="round" stroke-linejoin="round"/>
<path d="M20 29.616V20.5327" stroke="#E24C33" stroke-width="2.5" stroke-linecap="round" stroke-linejoin="round"/>
<path d="M17.9318 10.4835L12.5984 13.4502C11.3984 14.1168 10.3984 15.8002 10.3984 17.1835V22.8335C10.3984 24.2168 11.3818 25.9002 12.5984 26.5668L17.9318 29.5335C19.0651 30.1668 20.9318 30.1668 22.0818 29.5335L27.4151 26.5668C28.6151 25.9002 29.6151 24.2168 29.6151 22.8335V17.1668C29.6151 15.7835 28.6318 14.1002 27.4151 13.4335L22.0818 10.4668C20.9318 9.8335 19.0651 9.8335 17.9318 10.4835Z" stroke="#E24C33" stroke-width="2.5" stroke-linecap="round" stroke-linejoin="round"/>
<path d="M36.6745 24.9998C36.6745 31.4498 31.4578 36.6664 25.0078 36.6664L26.7578 33.7498" stroke="#E24C33" stroke-width="2.5" stroke-linecap="round" stroke-linejoin="round"/>
<path d="M3.33594 15.0004C3.33594 8.55041 8.5526 3.33374 15.0026 3.33374L13.2526 6.25041" stroke="#E24C33" stroke-width="2.5" stroke-linecap="round" stroke-linejoin="round"/>
</svg>
